<svg width="24" height="24" viewBox="0 0 24 24" fill="none" xmlns="http://www.w3.org/2000/svg">
<path d="M13.2929 16.7071C13.6834 17.0976 14.3166 17.0976 14.7071 16.7071C15.0977 16.3166 15.0977 15.6834 14.7071 15.2929L13.2929 16.7071ZM10 12L9.29292 11.2929C8.9024 11.6834 8.9024 12.3166 9.29292 12.7071L10 12ZM14.7071 8.70711C15.0977 8.31658 15.0977 7.68342 14.7071 7.29289C14.3166 6.90237 13.6834 6.90237 13.2929 7.29289L14.7071 8.70711ZM14.7071 15.2929L10.7071 11.2929L9.29292 12.7071L13.2929 16.7071L14.7071 15.2929ZM10.7071 12.7071L14.7071 8.70711L13.2929 7.29289L9.29292 11.2929L10.7071 12.7071Z" fill="white"/>
</svg>
