<svg width="30" height="30" viewBox="0 0 30 30" fill="none" xmlns="http://www.w3.org/2000/svg">
<path fill-rule="evenodd" clip-rule="evenodd" d="M19.875 5.625C19.875 3.75 18.0225 2.5 16.575 2.5C15.5675 2.5 15.4888 3.265 15.3337 4.775C15.265 5.4375 15.1825 6.2425 15 7.1875C14.5175 9.69 12.85 12.8875 11.255 13.8438V21.25C11.25 24.0625 12.1875 25 16.25 25H20.9663C23.6863 25 24.345 23.2087 24.59 22.545L24.6062 22.5C24.7487 22.1175 25.0537 21.8162 25.4037 21.475C25.7913 21.0925 26.2337 20.6588 26.5625 20C26.9513 19.2213 26.9 18.5287 26.8538 17.9125C26.825 17.5387 26.7987 17.1938 26.875 16.875C26.955 16.5375 27.0575 16.2813 27.1562 16.0363C27.335 15.5913 27.5 15.1788 27.5 14.375C27.5 12.5 26.565 11.2525 24.6062 11.2525H19.375C19.375 11.2525 19.875 7.5 19.875 5.625ZM6.875 12.5C6.37772 12.5 5.90081 12.6975 5.54917 13.0492C5.19754 13.4008 5 13.8777 5 14.375V23.125C5 23.6223 5.19754 24.0992 5.54917 24.4508C5.90081 24.8025 6.37772 25 6.875 25C7.37228 25 7.84919 24.8025 8.20083 24.4508C8.55246 24.0992 8.75 23.6223 8.75 23.125V14.375C8.75 13.8777 8.55246 13.4008 8.20083 13.0492C7.84919 12.6975 7.37228 12.5 6.875 12.5Z" fill="#ADB0B5"/>
</svg>
